<svg width="160px" height="151px" viewBox="0 0 160 151" version="1.1" xmlns="http://www.w3.org/2000/svg" xmlns:xlink="http://www.w3.org/1999/xlink">
    <!-- Generator: Sketch 47 (45396) - http://www.bohemiancoding.com/sketch -->
    <desc>Created with Sketch.</desc>
    <defs>
        <ellipse id="path-1" cx="148.122232" cy="45.5340161" rx="10.1480643" ry="10.1543574"></ellipse>
        <filter x="-9.9%" y="-14.8%" width="119.7%" height="119.7%" filterUnits="objectBoundingBox" id="filter-2">
            <feOffset dx="0" dy="-1" in="SourceAlpha" result="shadowOffsetOuter1"></feOffset>
            <feGaussianBlur stdDeviation="0.5" in="shadowOffsetOuter1" result="shadowBlurOuter1"></feGaussianBlur>
            <feColorMatrix values="0 0 0 0 0.0509803922   0 0 0 0 0   0 0 0 0 0  0 0 0 0.3 0" type="matrix" in="shadowBlurOuter1"></feColorMatrix>
        </filter>
        <ellipse id="path-3" cx="10.419667" cy="43.4339666" rx="9.97522619" ry="9.98141211"></ellipse>
        <filter x="-10.0%" y="-5.0%" width="120.0%" height="120.0%" filterUnits="objectBoundingBox" id="filter-4">
            <feOffset dx="0" dy="1" in="SourceAlpha" result="shadowOffsetOuter1"></feOffset>
            <feGaussianBlur stdDeviation="0.5" in="shadowOffsetOuter1" result="shadowBlurOuter1"></feGaussianBlur>
            <feColorMatrix values="0 0 0 0 0.0501966412   0 0 0 0 0   0 0 0 0 0  0 0 0 0.296818388 0" type="matrix" in="shadowBlurOuter1"></feColorMatrix>
        </filter>
        <ellipse id="path-5" cx="148.467909" cy="44.6939963" rx="10.1480643" ry="10.1543574"></ellipse>
        <filter x="-9.9%" y="-14.8%" width="119.7%" height="119.7%" filterUnits="objectBoundingBox" id="filter-6">
            <feOffset dx="0" dy="-1" in="SourceAlpha" result="shadowOffsetOuter1"></feOffset>
            <feGaussianBlur stdDeviation="0.5" in="shadowOffsetOuter1" result="shadowBlurOuter1"></feGaussianBlur>
            <feColorMatrix values="0 0 0 0 0.0509803922   0 0 0 0 0   0 0 0 0 0  0 0 0 0.3 0" type="matrix" in="shadowBlurOuter1"></feColorMatrix>
        </filter>
    </defs>
    <g id="Page-1" stroke="none" stroke-width="1" fill="none" fill-rule="evenodd">
        <g id="电话登陆" transform="translate(-536.000000, -301.000000)">
            <g id="headline" transform="translate(519.000000, 285.000000)">
                <g id="Group-6">
                    <g id="logo-icon">
                        <g id="Group-5">
                            <g>
                                <g id="Group-4" transform="translate(17.407132, 77.045519)">
                                    <path d="M79.3079864,16.4779832 C87.4983074,6.42216746 99.9744674,0 113.949675,0 C138.61819,0 158.615973,20.0101837 158.615973,44.6939963 C158.615973,69.3778089 138.61819,89.3879926 113.949675,89.3879926 C99.9744674,89.3879926 87.4983074,82.9658252 79.3079864,72.9100095 C71.1176654,82.9658252 58.6415054,89.3879926 44.6662974,89.3879926 C19.9977825,89.3879926 0,69.3778089 0,44.6939963 C0,20.0101837 19.9977825,0 44.6662974,0 C58.6415054,0 71.1176654,6.42216746 79.3079864,16.4779832 Z M44.6662974,69.2275167 C58.2073894,69.2275167 69.1846133,58.2434855 69.1846133,44.6939963 C69.1846133,31.1445072 58.2073894,20.1604759 44.6662974,20.1604759 C31.1252055,20.1604759 20.1479816,31.1445072 20.1479816,44.6939963 C20.1479816,58.2434855 31.1252055,69.2275167 44.6662974,69.2275167 Z M113.949675,69.2275167 C127.490767,69.2275167 138.467991,58.2434855 138.467991,44.6939963 C138.467991,31.1445072 127.490767,20.1604759 113.949675,20.1604759 C100.408583,20.1604759 89.4313595,31.1445072 89.4313595,44.6939963 C89.4313595,58.2434855 100.408583,69.2275167 113.949675,69.2275167 Z" id="Combined-Shape" fill="#D8D8D8"></path>
                                    <g id="Group-2" transform="translate(0.345676, 0.000000)">
                                        <path d="M79.1598395,16.4545061 C85.4267671,24.1488406 89.184448,33.9705811 89.184448,44.6705192 C89.184448,55.3704574 85.4267671,65.1921979 79.1598395,72.8865324 C72.8929119,65.1921979 69.135231,55.3704574 69.135231,44.6705192 C69.135231,33.9705811 72.8929119,24.1488406 79.1598395,16.4545061 Z" id="Combined-Shape-Copy-5" fill="#33A1DC"></path>
                                        <path d="M6.6784429e-06,44.7187028 C2.22633734e-06,44.7104678 -1.13686838e-13,44.7022323 -1.13686838e-13,44.6939963 C-1.13686838e-13,20.0101837 19.9977825,0 44.6662974,0 C58.6415054,0 71.1176654,6.42216746 79.3079864,16.4779832 C73.0410588,24.1723176 69.2833779,33.9940581 69.2833779,44.6939963 C69.2833779,44.7022323 69.2833801,44.7104678 69.2833846,44.7187028 L69.184602,44.7187028 C69.1846092,44.7104682 69.1846133,44.7022328 69.1846133,44.6939963 C69.1846133,31.1445072 58.2073894,20.1604759 44.6662974,20.1604759 C31.1252055,20.1604759 20.1479816,31.1445072 20.1479816,44.6939963 C20.1479816,44.7022328 20.1479857,44.7104682 20.1479938,44.7187028 L6.19856474e-06,44.7187028 Z" id="Combined-Shape" fill="#33A1DC"></path>
                                        <path d="M78.9623169,89.140928 C78.9623125,89.132693 78.9623102,89.1244575 78.9623102,89.1162215 C78.9623102,64.4324089 98.9600928,44.4222252 123.628608,44.4222252 C137.603816,44.4222252 150.079976,50.8443926 158.270297,60.9002084 C152.003369,68.5945428 148.245688,78.4162833 148.245688,89.1162215 C148.245688,89.1244575 148.24569,89.132693 148.245695,89.140928 L148.146912,89.140928 C148.146919,89.1326934 148.146924,89.1244579 148.146924,89.1162215 C148.146924,75.5667324 137.1697,64.5827011 123.628608,64.5827011 C110.087516,64.5827011 99.1102919,75.5667324 99.1102919,89.1162215 C99.1102919,89.1244579 99.1102959,89.1326934 99.110304,89.140928 L78.9623164,89.140928 Z" id="Combined-Shape-Copy-4" fill="#33A1DC" transform="translate(118.616303, 66.781577) scale(-1, -1) translate(-118.616303, -66.781577) "></path>
                                        <path d="M100.590916,1.91600879 C82.2535802,7.48039018 68.9060662,24.5270592 68.9060662,44.6931405 C68.9060662,44.7013765 68.9060684,44.709612 68.9060729,44.7178469 L89.0540591,44.7178469 C89.0540519,44.7096124 89.0540478,44.7013769 89.0540478,44.6931405 C89.0540478,35.9139235 93.6625335,28.2117436 100.590916,23.876609 L100.590916,1.91600879 Z" id="Combined-Shape" fill="#33A1DC"></path>
                                        <g id="Oval-2-Copy">
                                            <use fill="black" fill-opacity="1" filter="url(#filter-2)" xlink:href="#path-1"></use>
                                            <use fill="#33A1DC" fill-rule="evenodd" xlink:href="#path-1"></use>
                                        </g>
                                    </g>
                                </g>
                                <g id="Group-3" transform="translate(79.241498, 91.642050) rotate(-240.000000) translate(-79.241498, -91.642050) translate(-0.258502, 46.642050)">
                                    <path d="M44.6662974,89.3879926 C19.9977825,89.3879926 0,69.3778089 0,44.6939963 C0,20.0101837 19.9977825,0 44.6662974,0 C69.3348124,0 89.3325949,20.0101837 89.3325949,44.6939963 C89.3325949,69.3778089 69.3348124,89.3879926 44.6662974,89.3879926 Z M44.6662974,69.2275167 C58.2073894,69.2275167 69.1846133,58.2434855 69.1846133,44.6939963 C69.1846133,31.1445072 58.2073894,20.1604759 44.6662974,20.1604759 C31.1252055,20.1604759 20.1479816,31.1445072 20.1479816,44.6939963 C20.1479816,58.2434855 31.1252055,69.2275167 44.6662974,69.2275167 Z" id="Combined-Shape-Copy-6" fill="#D8D8D8"></path>
                                    <g id="Group">
                                        <path d="M79.5055156,16.4545061 C85.7724432,24.1488406 89.5301241,33.9705811 89.5301241,44.6705192 C89.5301241,55.3704574 85.7724432,65.1921979 79.5055156,72.8865324 C73.238588,65.1921979 69.4809071,55.3704574 69.4809071,44.6705192 C69.4809071,33.9705811 73.238588,24.1488406 79.5055156,16.4545061 Z" id="Combined-Shape-Copy-5" fill="#33A1DC"></path>
                                        <path d="M0.345682833,44.7187028 C0.345678381,44.7104678 0.345676155,44.7022323 0.345676155,44.6939963 C0.345676155,20.0101837 20.3434587,0 45.0119736,0 C58.9871816,0 71.4633416,6.42216746 79.6536626,16.4779832 C73.386735,24.1723176 69.6290541,33.9940581 69.6290541,44.6939963 C69.6290541,44.7022323 69.6290563,44.7104678 69.6290607,44.7187028 L69.5302782,44.7187028 C69.5302854,44.7104682 69.5302895,44.7022328 69.5302895,44.6939963 C69.5302895,31.1445072 58.5530655,20.1604759 45.0119736,20.1604759 C31.4708817,20.1604759 20.4936578,31.1445072 20.4936578,44.6939963 C20.4936578,44.7022328 20.4936618,44.7104682 20.4936699,44.7187028 L0.345682354,44.7187028 Z" id="Combined-Shape" fill="#33A1DC"></path>
                                        <path d="M79.3079931,89.140928 C79.3079886,89.132693 79.3079864,89.1244575 79.3079864,89.1162215 C79.3079864,64.4324089 99.3057689,44.4222252 123.974284,44.4222252 C137.949492,44.4222252 150.425652,50.8443926 158.615973,60.9002084 C152.349045,68.5945428 148.591364,78.4162833 148.591364,89.1162215 C148.591364,89.1244575 148.591367,89.132693 148.591371,89.140928 L148.492588,89.140928 C148.492596,89.1326934 148.4926,89.1244579 148.4926,89.1162215 C148.4926,75.5667324 137.515376,64.5827011 123.974284,64.5827011 C110.433192,64.5827011 99.455968,75.5667324 99.455968,89.1162215 C99.455968,89.1244579 99.4559721,89.1326934 99.4559802,89.140928 L79.3079926,89.140928 Z" id="Combined-Shape-Copy-4" fill="#33A1DC" transform="translate(118.961980, 66.781577) scale(-1, -1) translate(-118.961980, -66.781577) "></path>
                                        <g id="Oval-2-Copy-2">
                                            <use fill="black" fill-opacity="1" filter="url(#filter-4)" xlink:href="#path-3"></use>
                                            <use fill="#33A1DC" fill-rule="evenodd" xlink:href="#path-3"></use>
                                        </g>
                                        <g id="Oval-2-Copy-3">
                                            <use fill="black" fill-opacity="1" filter="url(#filter-6)" xlink:href="#path-5"></use>
                                            <use fill="#33A1DC" fill-rule="evenodd" xlink:href="#path-5"></use>
                                        </g>
                                    </g>
                                </g>
                            </g>
                        </g>
                    </g>
                </g>
            </g>
        </g>
    </g>
</svg>