<svg width="1440px" height="379px" viewBox="0 0 1440 379" version="1.1" xmlns="http://www.w3.org/2000/svg" xmlns:xlink="http://www.w3.org/1999/xlink">
    <!-- Generator: Sketch 47 (45396) - http://www.bohemiancoding.com/sketch -->
    <desc>Created with Sketch.</desc>
    <defs></defs>
    <g id="Page-1" stroke="none" stroke-width="1" fill="none" fill-rule="evenodd">
        <g id="landing" transform="translate(0.000000, -558.000000)">
            <g id="top-area" transform="translate(-51.000000, 0.000000)">
                <g id="waves" transform="translate(0.000000, 560.000000)">
                    <g id="graph-copy" opacity="0.718127264" transform="translate(37.000000, 0.000000)">
                        <path d="M9.91676561,3.76922219 C11.445778,-5.2030769 55.9272515,3.09891596 87.0510636,16.2615992 C114.32493,27.7960881 141.494298,47.5863458 167.176047,74.2991503 C190.707202,98.7750208 214.356023,123.531773 229.413603,152.44493 C234.053779,161.354871 241.408098,166.753771 245.946044,175.782756 C249.505089,182.864059 256.897609,189.417164 259.501296,195.150819 C261.219702,198.93497 265.241995,201.338242 266.934822,203.185543 C267.756605,204.082316 264.596566,205.644035 266.934822,205.644035 C274.486836,205.644035 275.132068,217.469959 280.417196,226.390092 C289.067972,240.990695 301.833994,257.694967 316.011205,275.32908 C351.846225,319.901937 404.962358,359.041313 436.13255,358.225247 C459.132527,357.623086 495.999837,351.390735 527.502292,330.922418 C557.139022,311.666333 581.373834,279.050518 605.038767,250.14679 C621.981084,229.453888 635.602849,204.408233 650.22834,185.004783 C667.674981,161.858549 685.684349,144.989997 700.55714,129.030946 C707.992351,121.052691 720.291117,115.884123 726.56908,110.267391 C729.283664,107.838723 730.946672,108.499848 733.316406,107.492188 C734.528033,106.976978 735.764063,104.332925 737.751759,104.11997 C749.980257,102.809851 762.320698,97.586136 774.468624,96.3042022 C813.259936,92.2106727 852.199283,113.677044 887.912212,147.913498 C923.341676,181.878206 955.554964,228.442185 991.449831,267.341955 C1041.73514,321.836853 1097.49927,362.522732 1146.22857,358.225247 C1164.279,356.633362 1184.25173,353.230121 1197.36816,341.947266 C1204.13751,336.124221 1213.34178,331.360381 1219.32617,324.498047 C1221.15968,322.395554 1222.35166,319.029516 1225.0625,317.804114 C1236.43139,312.664949 1242.13801,296.246714 1250.85059,280.082031 C1269.01941,246.372899 1287.26291,202.634328 1306.03125,186.509435 C1313.18797,180.36071 1316.2263,173.949435 1319.45898,170.439453 C1327.00448,162.246715 1329.45179,160.523029 1343.67188,147.913498 C1351.90648,140.61154 1394.15403,139.95488 1401.53125,133.826172 C1414.76203,133.600726 1436.10678,137.226909 1440.64551,135.749023 C1462.65707,128.58169 1478.36011,159.346326 1499.63953,152.44493 C1548.53046,136.588496 1617.90895,145.272386 1679.08602,178.453064 C1684.59404,181.440454 1690.01193,182.363805 1695.78851,185.004783 C1713.79378,193.236549 1730.22414,203.222133 1745.76102,213.909615 C1763.75367,226.286363 1784.31364,232.935882 1798.71882,241.845511 C1807.07088,247.011275 1814.81024,251.281947 1820.96811,254.433086 C1824.6422,256.313212 1826.6442,259.099744 1830.94426,257.83166 C1834.07402,256.908694 1837.56051,265.179366 1840.37787,267.341955 C1844.674,270.639631 1848.25243,269.03211 1853.22594,272.047124 C1867.66575,280.800749 1888.59635,286.693047 1907.08256,295.937099 C1911.90437,298.348253 1916.74581,300.36297 1921.982,302.158298 C1941.48694,308.845941 1959.59175,313.182849 1976.92099,317.804114 C2007.89535,326.064183 2029.78309,332.412195 2040.58101,313.839111 C2081.26279,243.863966 2016.30464,0.127893022 2016.30464,0.127893022 L2016.30464,373 L26.2575656,373 C26.2575656,373 -18.950971,173.166123 9.91676561,3.76922219 Z" id="Rectangle" fill="#FFFFFF"></path>
                        <path d="M12.4377942,0.127893022 C227.232301,0.127903078 284.516878,357.344666 444.67971,357.344666 C604.842543,357.344666 642.92241,95.7068349 783.732233,95.7068349 C924.542057,95.7068349 984.281805,357.344666 1148.75354,357.344666 C1250.22995,357.344666 1258.99858,216.555788 1335.75781,154.828125 C1383.40903,116.50833 1495.94947,145.662063 1555.8176,145.662063 C1712.12466,145.662063 1854.87061,327.133532 2055,327.133532" id="COMMENTS_GRAPH" stroke="#FFFFFF" stroke-width="4" stroke-linecap="round" stroke-linejoin="round"></path>
                    </g>
                    <g id="graph-copy-2" opacity="0.542572464" transform="translate(0.000000, 87.000000)">
                        <path d="M7.43636779,2.89007385 C8.5829411,-3.9894906 41.9386348,2.3761125 65.2777076,12.4686793 C85.7297895,21.3128182 106.10351,36.4871177 125.361697,56.9693216 C143.007201,75.7363431 160.74094,94.7187324 172.032293,116.88807 C175.51186,123.71982 181.026705,127.85946 184.429613,134.782489 C187.098464,140.21212 192.641954,145.236753 194.594403,149.633068 C195.882998,152.534589 198.899228,154.377312 200.168643,155.793741 C200.78488,156.481347 198.415235,157.678805 200.168643,157.678805 C205.831734,157.678805 206.31558,166.746403 210.278783,173.585969 C216.765812,184.781069 226.338776,197.58917 236.96996,211.110233 C263.841865,245.28674 303.672503,275.297092 327.046355,274.671369 C344.293539,274.209658 371.939537,269.430965 395.562546,253.736761 C417.786488,238.972041 435.959649,213.963668 453.70547,191.80156 C466.410146,175.935153 476.624813,156.731246 487.592152,141.853533 C500.67501,124.106019 514.179845,111.171955 525.332629,98.9352559 C530.908133,92.817881 540.130711,88.8548501 544.83842,84.5481869 C546.919128,82.6447322 549.401138,83.363682 551.249725,82.5954989 C552.134336,82.2278976 551.798129,79.9908239 553.224068,79.8346152 C562.393954,78.8300737 571.647784,74.8247584 580.75725,73.841828 C609.846015,70.7030895 639.045788,87.1625595 665.82614,113.413567 C692.393928,139.456212 716.549975,175.159424 743.466759,204.986057 C781.174626,246.770348 822.990937,277.966492 859.531984,274.671369 C882.193593,272.627838 907.018516,267.87868 928.542044,257.930252 C954.845581,245.772447 977.285796,226.886525 998.108718,208.593773 C1016.00187,192.874797 1035.13391,177.827129 1050.3657,164.016487 C1056.54065,158.417667 1063.32745,154.332292 1068.85946,149.633068 C1071.62845,147.280926 1074.66662,143.216782 1078.76113,141.853533 C1095.26712,136.357937 1108.59024,122.179757 1124.54721,116.88807 C1161.20946,104.730053 1213.23489,111.388478 1259.11025,136.829963 C1263.24059,139.120563 1267.30335,139.828548 1271.63508,141.853533 C1285.13684,148.16529 1297.45762,155.821796 1309.10839,164.016487 C1322.60068,173.506434 1338.01816,178.604993 1348.82029,185.436505 C1355.08332,189.397385 1360.8869,192.671948 1365.50455,195.088104 C1368.25967,196.529701 1369.76093,198.666292 1372.98545,197.693981 C1375.33239,196.986291 1377.94683,203.327878 1380.05951,204.986057 C1383.28108,207.51457 1385.96448,206.281993 1389.694,208.593773 C1400.5221,215.305668 1416.21751,219.823624 1430.07992,226.911556 C1433.69569,228.760323 1437.32618,230.305119 1441.25268,231.681698 C1455.87902,236.809489 1469.45542,240.134839 1482.45024,243.678221 C1505.67725,250.011679 1522.09039,254.879056 1530.18751,240.638031 C1560.6939,186.984167 1511.98319,0.0980627464 1511.98319,0.0980627464 L1511.98319,286 L19.6899798,286 C19.6899798,286 -14.2109228,132.77617 7.43636779,2.89007385 Z" id="Rectangle" fill="#FFFFFF"></path>
                        <path d="M9.32683255,0.0980627464 C170.396582,0.0980704569 213.353045,273.996178 333.455685,273.996178 C453.558325,273.996178 482.113593,73.3837929 587.70383,73.3837929 C693.294068,73.3837929 738.091611,273.996178 861.425407,273.996178 C984.759204,273.996178 1049.46265,111.687266 1166.67393,111.687266 C1283.88521,111.687266 1390.9273,250.831609 1541,250.831609" id="COMMENTS_GRAPH" stroke="#FFFFFF" stroke-width="4" stroke-linecap="round" stroke-linejoin="round"></path>
                    </g>
                    <g id="graph" transform="translate(28.000000, 160.000000)">
                        <path d="M10.4282873,2.81907828 C12.0361685,-2.38551301 58.8120635,2.43025152 91.5412888,10.0655728 C120.221983,16.7564221 148.792787,28.2362225 175.799239,43.7316075 C200.544168,57.929407 225.41283,72.2901385 241.247102,89.0618893 C246.126626,94.2303079 253.860292,97.3620659 258.632312,102.599539 C262.374938,106.707214 270.148776,110.508495 272.886765,113.834436 C274.693808,116.029521 278.923577,117.423595 280.703723,118.495165 C281.567895,119.015359 278.244856,119.921271 280.703723,119.921271 C288.645281,119.921271 289.323795,126.781174 294.881538,131.955504 C303.978534,140.424925 317.403047,150.114627 332.31154,160.343705 C369.994984,186.199231 425.850927,208.902938 458.628925,208.42956 C482.815275,208.080262 521.584257,204.465042 554.711656,192.591918 C585.877093,181.421977 611.361974,162.502412 636.247579,145.736131 C654.063806,133.732731 668.388203,119.204415 683.768098,107.948991 C702.114664,94.5224782 721.052982,84.7374817 736.692934,75.4800616 C744.511664,70.8520889 757.44482,67.8539404 764.04661,64.595824 C768.360752,62.4667077 769.627763,61.3950013 775.806107,61.0298695 C788.66537,60.2699044 801.64235,57.2397666 814.416884,56.496151 C855.20911,54.1216038 896.157008,66.5736732 933.712063,86.4333265 C970.969032,106.135347 1004.84393,133.145869 1042.59031,155.710588 C1095.46941,187.321624 1154.10994,210.922417 1205.35277,208.42956 C1237.13196,206.883569 1271.94485,203.290693 1302.12807,195.764416 C1339.01447,186.566682 1370.4832,172.278931 1399.68393,158.43993 C1424.77615,146.548066 1451.6057,135.164066 1472.96578,124.715913 C1481.62514,120.480242 1491.14252,117.389536 1498.90026,113.834436 C1502.78331,112.054972 1507.04384,108.980328 1512.78572,107.948991 C1535.93267,103.791412 1554.61616,93.065205 1576.9932,89.0618893 C1628.406,79.863995 1701.36314,84.9012879 1765.69581,104.148514 C1771.48794,105.881419 1777.18529,106.41703 1783.25984,107.948991 C1802.19384,112.724019 1819.47171,118.516389 1835.81001,124.715913 C1854.73074,131.895334 1876.35123,135.752543 1891.49945,140.920781 C1900.28232,143.917303 1908.42089,146.394605 1914.89639,148.222497 C1918.76,149.313108 1920.86526,150.929501 1925.38712,150.193919 C1928.67833,149.658531 1932.34465,154.456127 1935.30734,155.710588 C1939.82506,157.623481 1943.58808,156.691001 1948.81813,158.43993 C1964.00276,163.517674 1986.013,166.93564 2005.45276,172.297867 C2010.52329,173.696514 2015.61445,174.865197 2021.12073,175.906619 C2041.63177,179.785942 2060.67045,182.301667 2078.89356,184.982339 C2111.46562,189.773785 2134.48236,193.456097 2145.83726,182.682347 C2188.61747,142.091632 2120.30868,0.706840391 2120.30868,0.706840391 L2120.30868,217 L27.6119704,217 C27.6119704,217 -19.9284907,101.081701 10.4282873,2.81907828 Z" id="Rectangle" fill="#FFFFFF"></path>
                        <path d="M13.0793544,0.706840391 C238.953286,0.706846224 299.192687,207.918758 467.61696,207.918758 C636.041233,207.918758 676.085317,56.1496341 824.158324,56.1496341 C972.231331,56.1496341 1035.05254,207.918758 1208.00799,207.918758 C1380.96343,207.918758 1471.6994,85.1273291 1636.06902,85.1273291 C1800.43863,85.1273291 1950.54763,190.394086 2161,190.394086" id="COMMENTS_GRAPH" stroke="#FFFFFF" stroke-width="4" stroke-linecap="round" stroke-linejoin="round"></path>
                    </g>
                </g>
            </g>
        </g>
    </g>
</svg>