<svg width="1440px" height="1973px" viewBox="0 0 1440 1973" version="1.1" xmlns="http://www.w3.org/2000/svg" xmlns:xlink="http://www.w3.org/1999/xlink">
    <!-- Generator: Sketch 47 (45396) - http://www.bohemiancoding.com/sketch -->
    <desc>Created with Sketch.</desc>
    <defs></defs>
    <g id="Page-1" stroke="none" stroke-width="1" fill="none" fill-rule="evenodd">
        <g id="landing" transform="translate(0.000000, -1715.000000)">
            <g id="about-section" transform="translate(-512.000000, 1719.000000)">
                <g id="wave-">
                    <path d="M498,233.12609 L553.116033,223.944835 L614.196637,197.136165 L694.009744,129.908451 L750.335411,94.0520786 L808.835268,100.854279 L883.628295,165.490109 L927.465625,188.733447 L980.309053,197.136165 L1029.06483,173.671859 C1029.06483,173.671859 1045.14196,155.530123 1066.3133,129.908451 C1081.26354,111.815581 1098.10367,88.354463 1116.47434,72.1166259 C1136.43549,54.4729623 1151.41303,30.7168553 1168.86702,19.4906503 C1198.49985,0.431160273 1225.53738,0.00972282191 1225.53738,0.00972282191 C1225.53738,0.00972282191 1245.29872,-0.794381399 1267.00166,12.222628 C1285.78745,23.4899878 1304.81417,46.5374691 1328.4844,72.1166259 C1392.65483,141.462195 1463.25496,253.532414 1516.0304,269.255012 C1527.1577,272.570001 1542.57487,280.013479 1558.29895,280.118227 C1571.81529,280.208267 1585.26353,273.572013 1599.80743,269.255012 C1629.39588,260.472401 1658.50723,240.12259 1688.60895,216.139326 C1735.69962,178.620281 1779.86047,130.955796 1819.60833,100.854279 C1834.02765,89.9343621 1846.65703,74.1111141 1860.34347,72.1166259 C1874.59157,70.0402877 1889.03669,55.4178733 1906.30638,47.5892902 C1951.85065,26.9434492 2003.41815,6.66198634 2020.71651,36.8992657 C2045.04827,79.4308549 2008.03013,233.12609 2008.03013,233.12609 L2008.03013,1082 L498,1082 L498,233.12609 Z" id="Rectangle-3" fill="#B6DDF3"></path>
                    <path d="M444,1157.78408 L508.764039,1149.01013 L580.53674,1123.39075 L674.321052,1059.14541 L740.506469,1024.87971 L809.246667,1031.38015 L897.132137,1093.14859 L948.643148,1115.3608 L1010.73676,1123.39075 L1068.02719,1100.96738 C1068.02719,1100.96738 1086.91861,1083.63045 1111.79597,1059.14541 C1129.36324,1041.85519 1149.15122,1019.43486 1170.73765,1003.91737 C1194.19298,987.056417 1211.79232,964.354185 1232.30162,953.626 C1267.12165,935.412033 1298.89206,935.009291 1298.89206,935.009291 C1298.89206,935.009291 1322.11261,934.240859 1347.61462,946.680404 C1369.68884,957.447918 1392.04618,979.47296 1419.85985,1003.91737 C1495.26325,1070.18661 1578.22186,1177.28513 1640.23559,1192.31024 C1653.31071,1195.47817 1671.42664,1202.59144 1689.90321,1202.69154 C1705.78557,1202.77759 1721.58791,1196.43573 1738.6777,1192.31024 C1773.44558,1183.91725 1807.65285,1164.4702 1843.02385,1141.55089 C1898.35768,1105.69628 1950.24885,1060.1463 1996.95453,1031.38015 C2013.89794,1020.94467 2028.73807,1005.82338 2044.82031,1003.91737 C2061.56253,1001.93314 2078.53626,987.959409 2098.82898,980.47812 C2152.34573,960.748176 2212.94008,941.366445 2233.26649,970.26233 C2261.85751,1010.90712 2218.35937,1157.78408 2218.35937,1157.78408 L2218.35937,1969 L444,1969 L444,1157.78408 Z" id="Rectangle-3" fill="#B6DDF3" transform="translate(1343.500000, 1452.000000) scale(-1, -1) translate(-1343.500000, -1452.000000) "></path>
                    <rect id="Rectangle-7" fill="#B6DDF3" x="0" y="816" width="2459" height="413"></rect>
                    <path d="M499,228.892529 C638.279204,228.892536 688.852726,93.4175034 769.041539,93.4175034 C849.230352,93.4175034 868.912118,195.045472 969.414647,195.045476 C1069.91718,195.045479 1110.13173,-2.32650334e-06 1226.29257,0 C1342.4534,2.32650334e-06 1414.28697,278.000003 1557.68854,278 C1701.0901,277.999997 1794.65341,25.7096897 2009,25.7096881" id="LIKES_GRAPH" stroke="#D2EFFF" stroke-width="8" stroke-linecap="round" stroke-linejoin="round"></path>
                </g>
            </g>
        </g>
    </g>
</svg>